<svg xmlns="http://www.w3.org/2000/svg" width="36" height="36" viewBox="0 0 36 36">
    <path fill="none" fill-rule="evenodd" stroke="#F5E15A" stroke-linecap="round" stroke-linejoin="round" stroke-width="3" d="M33.999 25.958v4.817a3.209 3.209 0 0 1-1.042 2.38 3.222 3.222 0 0 1-2.466.832 31.882 31.882 0 0 1-13.885-4.93 31.344 31.344 0 0 1-9.653-9.634A31.738 31.738 0 0 1 2.013 5.5a3.208 3.208 0 0 1 .828-2.454A3.22 3.22 0 0 1 5.215 2h4.827a3.216 3.216 0 0 1 3.218 2.762 20.585 20.585 0 0 0 1.126 4.512 3.207 3.207 0 0 1-.724 3.388l-2.043 2.04a25.718 25.718 0 0 0 9.653 9.634l2.044-2.039a3.223 3.223 0 0 1 3.394-.723c1.46.544 2.977.921 4.522 1.124a3.213 3.213 0 0 1 2.767 3.26z"/>
</svg>
