<svg xmlns="http://www.w3.org/2000/svg" width="50" height="50" viewBox="0 0 50 50">
    <path fill="#F6E565" fill-rule="nonzero" d="M48.733 16.303a4.313 4.313 0 0 0 0-6.107l-.981-.981c1.362-1.963 1.144-4.635-.545-6.38a4.985 4.985 0 0 0-3.542-1.472 5.116 5.116 0 0 0-2.834.873l-.98-.982A4.285 4.285 0 0 0 36.797 0a4.285 4.285 0 0 0-3.051 1.254c-.763.763-1.145 1.745-1.254 2.726a5.43 5.43 0 0 0-2.452-.6c-1.472 0-2.78.546-3.815 1.582a5.365 5.365 0 0 0-1.58 3.817c0 1.472.545 2.78 1.58 3.816l2.997 3-13.569 13.522-2.997-3a5.36 5.36 0 0 0-3.815-1.58c-1.471 0-2.78.545-3.815 1.58-1.69 1.691-2.016 4.254-.98 6.271a4.23 4.23 0 0 0-2.78 1.254c-1.69 1.69-1.69 4.471 0 6.162l1.035.981c-.599.818-.871 1.8-.871 2.836 0 1.308.544 2.562 1.47 3.544a4.946 4.946 0 0 0 3.543 1.472c.981 0 1.962-.327 2.834-.873l.98.982A4.285 4.285 0 0 0 13.312 50a4.285 4.285 0 0 0 3.051-1.254c.763-.763 1.145-1.745 1.254-2.726.763.381 1.58.6 2.452.6a5.36 5.36 0 0 0 3.815-1.582c2.125-2.126 2.125-5.561 0-7.633l-2.997-3L34.4 20.884l2.997 3a5.36 5.36 0 0 0 3.815 1.58c1.47 0 2.779-.545 3.814-1.58 1.799-1.8 2.017-4.526.818-6.598h.327c1.09 0 1.962-.328 2.561-.982zM45.899 4.09c1.036 1.036 1.2 2.563.545 3.817L42.14 3.6c1.199-.71 2.78-.546 3.76.49zM4.155 45.856C3.12 44.82 2.956 43.293 3.61 42.04l4.306 4.308c-1.2.709-2.78.545-3.76-.49zm10.9 1.581a2.565 2.565 0 0 1-3.597 0L2.575 38.55c-.981-1.036-.981-2.618 0-3.6a2.564 2.564 0 0 1 1.798-.762c.654 0 1.308.272 1.799.763l8.882 8.888c.981.981.981 2.617 0 3.598zm7.52-8.833a3.621 3.621 0 0 1 0 5.126c-.709.708-1.58 1.036-2.561 1.036-.981 0-1.853-.382-2.562-1.036L6.281 32.552c-1.363-1.418-1.363-3.762 0-5.126.708-.708 1.58-1.036 2.561-1.036.98 0 1.853.382 2.561 1.036l7.575 7.58 3.597 3.598zm-2.943-5.561l-2.67-2.672 13.46-13.468 2.67 2.672-13.46 13.468zm24.033-10.578c-.709.708-1.58 1.036-2.561 1.036-.981 0-1.853-.382-2.562-1.036l-7.466-7.47-3.596-3.654c-.709-.654-1.09-1.58-1.09-2.562 0-.982.381-1.854 1.035-2.563.709-.709 1.58-1.036 2.561-1.036.981 0 1.853.382 2.562 1.036l7.902 7.906 1.307 1.309 1.908 1.908a3.621 3.621 0 0 1 0 5.126zm-.545-8.234l-1.199-1.145L35 6.106a2.473 2.473 0 0 1 0-3.598 2.564 2.564 0 0 1 1.798-.763c.709 0 1.308.272 1.799.763l1.58 1.581 5.777 5.78 1.58 1.581c.981.982.981 2.618 0 3.6-.381.38-.926.435-1.308.435-1.09 0-2.343-.49-3.106-1.254z"/>
</svg>
